<svg viewBox="350 265 320 320" xmlns="http://www.w3.org/2000/svg">
  <rect x="350" y="265" width="320" height="320" rx="50" fill="#09090b"/>
  <g transform="translate(0,1024) scale(0.1,-0.1)" fill="#FFFFFF" stroke="none">
    <path d="M6295 7284 c53 -29 100 -75 124 -122 37 -73 43 -140 39 -517 -3 -342 -4 -362 -24 -406 -46 -99 -136 -159 -250 -167 -105 -7 -174 17 -241 84 -67 66 -83 119 -83 267 0 126 -11 171 -52 222 -52 63 -94 77 -253 84 -104 5 -148 12 -173 25 -44 23 -105 87 -128 134 -26 52 -30 167 -10 230 32 94 128 177 222 190 26 4 214 5 418 2 355 -5 373 -6 411 -26Z"/>
    <path d="M4847 7282 c63 -33 106 -74 133 -129 l25 -48 3 -396 c3 -377 2 -399 -18 -450 -24 -64 -83 -129 -148 -161 -46 -23 -53 -23 -420 -26 -416 -3 -444 0 -523 61 -23 17 -56 57 -73 87 l-31 55 0 415 0 415 27 51 c31 60 73 98 143 131 l50 23 395 -2 c388 -3 396 -3 437 -26Z"/>
    <path d="M4859 5815 c61 -34 123 -108 141 -170 8 -28 10 -157 8 -435 l-3 -395 -27 -45 c-35 -60 -83 -105 -138 -129 -43 -19 -69 -20 -437 -22 l-391 -1 -68 33 c-57 28 -73 42 -105 92 -21 32 -41 77 -44 100 -3 23 -5 213 -3 422 3 375 3 381 26 423 13 24 43 63 66 87 74 74 78 74 526 72 l395 -2 54 -30Z"/>
    <path d="M6287 5822 c66 -35 110 -79 140 -140 l28 -57 0 -396 0 -395 -30 -59 c-34 -66 -101 -125 -166 -144 -27 -8 -155 -12 -417 -11 -418 0 -436 3 -508 64 -22 19 -53 58 -69 87 l-30 54 0 410 c0 382 1 412 19 445 34 65 85 118 138 144 l53 27 400 -3 c393 -3 401 -3 442 -26Z"/>
  </g>
</svg>